<?xml version="1.0" encoding="UTF-8"?>
<svg width="168px" height="71px" viewBox="0 0 168 71" version="1.1" xmlns="http://www.w3.org/2000/svg" xmlns:xlink="http://www.w3.org/1999/xlink">
    <!-- Generator: Sketch 51.2 (57519) - http://www.bohemiancoding.com/sketch -->
    <title>Premier League</title>
    <desc>Created with Sketch.</desc>
    <defs></defs>
    <g id="Concept" stroke="none" stroke-width="1" fill="none" fill-rule="evenodd">
        <g id="Premier-League" transform="translate(-765.000000, -104.000000)" fill="#38003D" stroke="#38003D" stroke-width="0.5">
            <g transform="translate(766.000000, 104.000000)">
                <path d="M14.6857117,13 C22.560647,8.73775789 30.6384588,8.18655876 38.0869058,10.1750876 C38.4067684,7.68359053 38.588182,5.51076059 40,2.51388012 C38.129071,3.84552976 36.9296491,5.35448784 35.5532878,6.98522305 L35.0894874,0.0359455707 L29.1151161,6.53594557 L25.0256088,0 L22.5103469,7.30939495 L15.1989269,2.25606226 L16.4293816,9.28602339 C14.7509341,7.92187746 12.87852,6.55762897 11,5.79844036 C12.4431822,7.66036585 13.8475972,10.2327882 14.6857117,13 Z" id="path4138" stroke-linejoin="round"></path>
                <path d="M44.5384359,16.1203083 C42.479636,14.3742746 40.4112313,12.8501352 35.8667839,11.7087768 C36.2779177,12.6265863 36.6182689,13.7907294 36.6140289,15.0040984 C35.4410254,13.7284378 34.0181349,12.1450597 32.279314,11.2047405 C26.5375812,10.4370709 20.6323683,11.9077489 16.0065084,14.2866839 C17.9677778,14.5191975 19.5131572,16.0774039 20.0343318,17.7972598 C14.4949603,13.8544396 11.3145754,19.5398136 14.5222656,25.2021727 C11.0755863,23.5245191 10.9149027,19.436236 11.9652187,16.7486628 C9.37756243,18.7539713 5.42288542,22.6210158 2.95843267,27.8591068 L6.12156507,28.3147205 C2.29880153,32.9050306 0.373581341,39.5175683 0,43.4041738 L5.14672254,41.7015019 C3.51724195,47.7255293 4.8219348,57.10206 6.90039509,60.5252798 C10.1125636,57.9460003 12.6890468,54.7182336 15.3551021,50.6219108 C17.0450472,56.0706513 16.7411082,61.739429 15.4264405,67.5197444 C22.9330927,71.8566887 32.2759148,70.0992018 38.3980301,65.3886729 C38.6586635,66.5045615 38.8362394,67.027804 39.3471329,69.452954 C46.7769459,64.2000342 49.2972459,57.7734781 50.018778,51.5426126 L52.4354114,54.2685028 C55.6704919,43.6032139 53.7434637,34.9362867 47.9959522,26.5412743 L47.7585825,28.4992763 C47.0907988,27.6446327 45.9974366,26.6044257 45.4879003,25.951134 C45.4080534,25.8487608 45.4278385,25.7907149 45.375582,25.707519 C45.647692,25.5381525 46.1508271,25.2973791 46.2831504,24.9316403 C46.2285057,24.4225911 45.6503835,23.1096919 45.2233274,22.8653285 C44.1585681,22.9671271 43.3043667,23.917598 43.2973145,24.2658749 C42.7439649,23.7323098 42.2213112,23.1420595 40.6081117,22.5346874 C41.3319071,23.2823835 42.0272699,24.4301981 42.5383562,25.4494081 C43.5997007,26.2440169 45.3759918,27.7674542 46.700433,29.156116 L46.445099,29.4189373 C44.9926015,28.2565168 41.1017953,28.3554043 38.9613829,29.4584153 C37.919374,28.18381 36.7125506,26.7680946 35.0220709,25.2065516 C34.6108932,24.4886869 34.5728161,23.2058175 35.882875,22.0965443 C34.4359776,22.2280889 33.8338372,22.8668774 33.1522271,23.4579485 C32.1395273,22.6784335 30.814906,21.8683068 28.6671848,21.2450202 C26.9842848,21.5938297 24.9537843,22.6946375 24.1714218,23.6592208 C26.1350595,24.7314073 26.7344474,25.0552956 27.9265383,25.1409581 C29.6762487,25.2666892 31.1985005,24.8613523 32.3161843,25.5913867 C33.7035021,26.8500369 36.3021968,29.2057284 36.6709254,30.2759911 C34.4249647,28.9621134 31.0611813,29.6565478 27.3218425,29.4576524 C23.7860094,29.0258685 21.83749,26.3551783 21.8005913,24.2044315 L19.2875846,23.7998039 C20.7011229,21.8186047 22.4908844,20.9373229 23.812149,20.4648697 L22.4324336,19.299182 C24.6422018,17.3595062 28.0792069,15.8042658 31.5772777,15.4950544 C34.0018694,16.7191064 36.0794561,18.059602 37.5042881,19.2588601 C38.1482919,18.1608765 38.2422218,16.9674796 38.3214873,16.1857064 C41.0855695,17.4846365 44.1723208,19.7108535 46.4301381,22.0556448 C45.5247238,20.3696619 44.8382596,18.4244751 44.5384359,16.1203141 L44.5384359,16.1203083 Z M33.7385813,42.5297173 C32.6779019,40.453345 31.639685,38.1024768 30.4217834,36.1260661 C32.7762307,34.4041735 35.0040825,32.619513 38.8212686,31.6228603 C39.6273784,32.305969 40.8138169,33.1254339 42.5065371,33.7538464 L42.5042114,37.8582336 C40.1038223,39.5369092 37.7047732,42.2722651 33.7385757,42.5297173 L33.7385813,42.5297173 Z M41.7319429,41.7750975 L44.6388848,41.7655581 C45.1309716,42.2377595 46.156949,43.840147 46.2304386,45.088602 C46.0019065,46.8595498 44.6565428,50.1157017 42.2918044,51.3585895 C42.3665689,49.850919 42.1970009,47.8991357 41.900046,46.8126588 C40.5506408,48.363749 38.3540083,49.0619427 37.2217395,49.3185612 C36.7510659,48.0375924 35.9791419,46.6229656 35.2264133,45.4640916 C37.2514456,45.0350943 39.8137451,43.5174631 41.7319429,41.7751033 L41.7319429,41.7750975 Z M47.4051494,31.7868014 C49.3191284,35.9275978 48.9074132,39.8981881 47.5638832,41.93294 C46.9096479,40.4044984 45.6533572,38.8748713 44.5874748,37.9119976 L44.6310229,33.8911435 C45.8422041,33.2256517 46.6679814,32.5274001 47.4051494,31.7868014 Z" id="path4142" stroke-linejoin="round"></path>
                <path d="M68.4769138,27.4276923 L68.4769138,35 L64,35 L64,12 L70.0382238,12 C74.0255552,12.0487841 75.3253653,12.5056362 77.0480311,13.6238524 C78.7814656,14.7316187 80.0010856,17.1656641 79.9999993,19.5275037 C79.9975787,24.795401 76.6525471,27.468287 70.3826129,27.4276923 L68.4769138,27.4276923 Z M68.4769138,23.3230769 L70.7397888,23.3230769 C73.2416098,23.3414939 75.3270977,22.427498 75.344749,19.6621478 C75.3114834,17.9647464 74.3061384,16.3516991 71.2065461,16.1753846 L68.4769138,16.1753846 L68.4769138,23.3230769 Z" id="path4144" fill-rule="nonzero"></path>
                <path d="M90,23.2294332 C87.3706338,22.4609545 85.1958028,23.8881395 85.0110141,26.5578052 L85.0110141,35 L81,35 L81,19.1592465 L84.5180282,19.1592465 L84.9850282,21.5667266 C86.0705493,19.4516293 87.474831,18.632241 90,19.1512694 L90,23.2294332 Z" id="path4146" fill-rule="nonzero"></path>
                <path d="M106.909877,28.2672373 L95.3565716,28.2672373 C95.359062,29.8631799 97.0973544,31.4605667 99.3094881,31.454389 C101.795379,31.3726377 102.757155,30.4600729 103.627092,29.6159644 L106.116498,32.1424789 C105.135195,33.0483046 103.265774,34.7547447 99.6657078,35 C94.2911354,34.9430476 91.0476552,31.4997096 91,27.151757 C91.1332088,22.3324481 94.7263751,19.0608145 99.3274632,19 C102.269367,19.0183611 105.107668,20.7331324 106.296088,23.4310571 C106.978247,24.9732583 107.121183,26.837872 106.909877,28.2672373 Z M95.3480895,25.4563943 L102.913759,25.4563943 C102.575353,23.990584 101.16946,22.4887808 99.1358024,22.5219152 C97.071659,22.5555442 95.5755245,23.9633346 95.3480895,25.4563943 Z" id="path4148" fill-rule="nonzero" stroke-linejoin="round"></path>
                <path d="M126.822521,35 L126.822521,25.7955027 C126.709084,23.7704664 125.275283,22.8956892 124.153241,22.9756841 C122.728449,23.0772651 121.615562,24.1530495 121.526646,25.8819859 L121.526646,35 L117.411275,35 L117.411275,25.1586881 C117.165354,23.7077375 115.846272,22.912996 114.750267,23.0054039 C113.448038,23.1151989 112.319314,23.8597061 112.203683,25.3469713 L112.203683,35 L108,35 L108,19.424729 L111.802817,19.424729 L112.22058,21.4055842 C113.277551,19.7880781 114.378103,19.0145884 116.147771,19.0002424 C118.631418,18.9801076 119.719445,20.2173316 120.735953,21.5219127 C122.033973,19.7059019 123.179933,19.096623 125.63685,19.0002424 C129.229616,19.1766982 131.088421,22.0314853 130.996767,25.2076741 L130.996767,35 L126.822521,35 Z" id="path4150" fill-rule="nonzero"></path>
                <polygon id="path4152" fill-rule="nonzero" points="133 20 137 20 137 35 133 35"></polygon>
                <polygon id="path4153" fill-rule="nonzero" points="64 38 68.4939745 38 68.4939745 55.927903 78 55.927903 78 60 64 60"></polygon>
                <path d="M109.429739,60.5774874 L108.984683,58.6815529 C107.582564,60.4309005 105.928551,61.0828091 103.886259,60.9917013 C102.033344,60.9090426 100.140498,59.9178419 98.7538659,58.1039386 C97.5846173,56.6187861 97,54.8137525 97,52.6888409 C97,50.586778 97.960419,48.5080823 99.6339807,46.8718167 C100.943817,45.6835011 102.766299,44.9867882 104.537426,45.0001899 C106.23349,45.0130272 107.680143,45.5140841 108.94406,47.1841647 L109.346551,45.2138727 L113,45.2138727 L113,60.5774874 L109.429739,60.5774874 Z M105.204025,48.8337602 C102.931885,48.9889944 101.406009,50.4218197 101.269775,52.9261537 C101.266032,54.1151068 101.643858,55.2955707 102.569296,56.1039297 C103.400399,56.7674422 104.380603,57.1082377 105.346429,57.0586473 C107.512034,56.9034562 108.955526,55.1691099 108.979664,53.0943128 C109.008891,50.7336005 107.607007,48.9778715 105.204025,48.8337602 Z" id="path4157" fill-rule="nonzero"></path>
                <path d="M133,45 L137.31996,45 L137.31996,52.5228144 C137.31996,53.5557672 137.221323,54.8457572 137.889216,55.7282099 C138.568484,56.5724738 139.445641,56.9433482 140.20704,56.9680225 C141.410062,57.0070094 142.100177,56.6394232 142.608182,56.2111649 C143.644656,55.3889014 143.760713,53.8233035 143.765801,52.6272699 L143.765801,45 L148,45 L148,54.0548334 C148,56.0597182 147.203545,57.7154795 145.790373,59.1550301 C144.414615,60.3968952 142.53927,61.0973434 140.197122,60.9890411 C137.858004,60.8808773 136.380551,60.1967591 135.065473,58.9515415 C133.966276,57.9107331 133,56.1123274 133,53.6892385 L133,45 Z" id="path4161" fill-rule="nonzero"></path>
                <path d="M135.500007,13 C136.189657,13 136.775861,13.2471251 137.258607,13.7413781 C137.752869,14.2241362 138,14.8103428 138,15.4999993 C138,16.1896545 137.752869,16.7816086 137.258607,17.2758615 C136.775861,17.7586196 136.189657,18 135.500007,18 C134.810343,18 134.218408,17.7586196 133.724145,17.2758615 C133.241386,16.7816086 133,16.1896545 133,15.4999993 C133,14.8103428 133.241386,14.2241362 133.724145,13.7413781 C134.218408,13.2471251 134.810343,13 135.500007,13 Z" id="path4145" fill-rule="nonzero"></path>
                <path d="M166,23.2294332 C163.370634,22.4609545 161.195803,23.8881395 161.011014,26.5578052 L161.011014,35 L157,35 L157,19.1592465 L160.518028,19.1592465 L160.985028,21.5667266 C162.070549,19.4516293 163.474831,18.632241 166,19.1512694 L166,23.2294332 Z" id="path4147" fill-rule="nonzero"></path>
                <path d="M154.909877,28.2672373 L143.356572,28.2672373 C143.359062,29.8631799 145.097354,31.4605667 147.309488,31.454389 C149.795379,31.3726377 150.757155,30.4600729 151.627092,29.6159644 L154.116498,32.1424789 C153.135195,33.0483046 151.265774,34.7547447 147.665708,35 C142.291135,34.9430476 139.047655,31.4997096 139,27.151757 C139.133209,22.3324481 142.726375,19.0608145 147.327463,19 C150.269367,19.0183611 153.107668,20.7331324 154.296088,23.4310571 C154.978247,24.9732583 155.121183,26.837872 154.909877,28.2672373 Z M143.348089,25.4563943 L150.913759,25.4563943 C150.575353,23.990584 149.16946,22.4887808 147.135802,22.5219152 C145.071659,22.5555442 143.575525,23.9633346 143.348089,25.4563943 Z" id="path4149" fill-rule="nonzero" stroke-linejoin="round"></path>
                <path d="M117.923206,61.9800091 C119.385773,63.3097266 120.523316,63.8066591 121.429067,63.9592371 C124.307126,64.4440605 127.42316,63.3289075 126.757947,59.0994201 C125.974163,59.9286521 125.229275,60.3818911 124.425323,60.6190174 C120.856726,61.3427543 118.383519,60.0354363 116.753464,57.9850583 C115.584483,56.5133792 115,54.7247212 115,52.619087 C115,50.5360942 115.960199,48.4762566 117.633377,46.8548354 C118.942913,45.6773003 120.764977,44.9869081 122.535698,45.0001882 C124.231373,45.012909 125.677694,45.5094203 126.941321,47.1643498 L127.34372,45.2119325 L130.996331,45.2119325 L130.996331,59.261489 C131.151774,65.9701263 126.336877,68.0345286 122.463701,67.9995647 C120.070697,67.977962 117.603547,66.9731577 115.652848,65.2483573 L117.923206,61.9800091 Z M123.202144,48.7989799 C120.930524,48.9528058 119.404999,50.3726323 119.268796,52.8542468 C119.265053,54.0324136 119.642793,55.2021682 120.568019,56.0031937 C121.398932,56.6606867 122.378911,56.9983905 123.344515,56.94925 C125.509624,56.7954668 126.952784,55.0768547 126.976917,53.0208803 C127.006137,50.6815846 125.604575,48.9417839 123.202144,48.7989799 Z" id="path4180" fill-rule="nonzero"></path>
                <path d="M165.909877,54.2672373 L154.356572,54.2672373 C154.359062,55.8631799 156.097354,57.4605667 158.309488,57.454389 C160.795379,57.3726377 161.757155,56.4600729 162.627092,55.6159644 L165.116498,58.1424789 C164.135195,59.0483046 162.265774,60.7547447 158.665708,61 C153.291135,60.9430476 150.047655,57.4997096 150,53.151757 C150.133209,48.3324481 153.726375,45.0608145 158.327463,45 C161.269367,45.0183611 164.107668,46.7331324 165.296088,49.4310571 C165.978247,50.9732583 166.121183,52.837872 165.909877,54.2672373 Z M154.348089,51.4563943 L161.913759,51.4563943 C161.575353,49.990584 160.16946,48.4887808 158.135802,48.5219152 C156.071659,48.5555442 154.575525,49.9633346 154.348089,51.4563943 Z" id="path4149-6" fill-rule="nonzero" stroke-linejoin="round"></path>
                <path d="M95.9098769,54.2672373 L84.3565716,54.2672373 C84.359062,55.8631799 86.0973544,57.4605667 88.3094881,57.454389 C90.7953789,57.3726377 91.7571545,56.4600729 92.6270918,55.6159644 L95.1164985,58.1424789 C94.135195,59.0483046 92.265774,60.7547447 88.6657078,61 C83.2911354,60.9430476 80.0476552,57.4997096 80,53.151757 C80.1332088,48.3324481 83.7263751,45.0608145 88.3274632,45 C91.2693668,45.0183611 94.1076684,46.7331324 95.2960879,49.4310571 C95.9782466,50.9732583 96.1211828,52.837872 95.9098769,54.2672373 Z M84.3480895,51.4563943 L91.9137588,51.4563943 C91.575353,49.990584 90.1694601,48.4887808 88.1358024,48.5219152 C86.071659,48.5555442 84.5755245,49.9633346 84.3480895,51.4563943 Z" id="path4197" fill-rule="nonzero" stroke-linejoin="round"></path>
            </g>
        </g>
    </g>
</svg>